<?xml version="1.0" standalone="no"?>
<!DOCTYPE svg PUBLIC "-//W3C//DTD SVG 20010904//EN"
 "http://www.w3.org/TR/2001/REC-SVG-20010904/DTD/svg10.dtd">
<svg version="1.0" xmlns="http://www.w3.org/2000/svg"
 width="920.000000pt" height="524.000000pt" viewBox="0 0 920.000000 524.000000"
 preserveAspectRatio="xMidYMid meet">

<g transform="translate(0.000000,524.000000) scale(0.100000,-0.100000)"
fill="#000000" stroke="none">
<path d="M4905 5209 c-60 -34 -186 -64 -350 -85 -454 -56 -515 -72 -700 -192
-141 -91 -245 -211 -329 -382 -70 -140 -95 -283 -103 -570 -6 -210 5 -345 30
-365 9 -7 13 -114 16 -425 3 -346 6 -429 21 -500 56 -273 235 -540 455 -678
48 -29 159 -84 180 -88 6 -1 49 -14 98 -28 163 -48 245 -61 382 -60 188 1 440
56 585 129 238 120 426 360 517 660 l27 90 3 405 c1 223 8 477 15 565 7 88 13
250 12 360 -1 291 -24 398 -128 602 -35 70 -129 169 -253 266 -92 71 -103 83
-103 111 1 17 7 42 15 56 17 30 19 66 4 75 -6 4 -37 -5 -68 -19 -32 -14 -73
-29 -91 -33 -29 -5 -32 -4 -27 11 31 80 13 90 -79 42 -89 -48 -98 -46 -67 9
25 45 25 76 1 74 -7 -1 -35 -14 -63 -30z m268 -583 c12 -13 40 -45 61 -71 21
-26 80 -80 131 -121 177 -142 245 -277 275 -544 15 -132 39 -251 57 -279 13
-21 13 -33 -1 -110 -8 -49 -17 -176 -21 -295 -8 -333 -49 -483 -157 -581 -72
-67 -186 -125 -243 -125 -50 0 -64 11 -89 71 -66 155 -74 168 -122 199 -83 52
-150 72 -261 78 -78 3 -114 1 -152 -12 -44 -14 -53 -14 -85 -1 -73 31 -258 15
-360 -30 -78 -34 -119 -75 -150 -147 -63 -148 -66 -153 -116 -156 -37 -2 -61
5 -128 38 -214 107 -267 233 -282 675 -6 158 -14 265 -25 311 -14 64 -14 77
-2 120 8 27 20 88 26 135 13 104 42 219 78 314 61 165 93 217 192 315 36 36
94 97 128 137 l62 71 518 5 c298 3 533 9 553 15 60 17 89 14 113 -12z m-530
-1931 c25 -10 73 -15 154 -15 172 -1 226 -31 272 -155 42 -111 18 -211 -74
-313 -92 -101 -176 -127 -237 -73 -52 45 -92 61 -153 61 -65 0 -107 -16 -154
-59 -62 -56 -138 -34 -234 67 -120 127 -136 257 -47 380 56 78 76 86 242 92
95 4 152 10 160 18 16 16 28 15 71 -3z"/>
<path d="M3952 3784 c-86 -29 -166 -77 -205 -123 -30 -36 -33 -51 -15 -69 14
-14 58 -16 58 -2 0 18 100 89 157 110 79 29 183 41 272 29 81 -10 104 -2 99
35 -5 35 -44 46 -173 46 -102 0 -131 -4 -193 -26z"/>
<path d="M4930 3803 c-23 -9 -50 -35 -50 -49 0 -26 36 -34 106 -25 83 12 200
0 277 -29 35 -13 78 -41 112 -71 62 -57 98 -63 103 -18 6 53 -117 144 -247
183 -53 16 -265 22 -301 9z"/>
<path d="M4001 3420 c-77 -78 -25 -202 86 -202 69 0 117 58 109 132 -6 64 -48
100 -115 100 -42 0 -54 -5 -80 -30z"/>
<path d="M5037 3406 c-50 -18 -101 -58 -127 -102 -35 -56 -13 -63 55 -17 58
38 59 38 159 38 85 0 108 -3 144 -22 23 -13 47 -23 52 -23 24 0 6 37 -35 76
-66 61 -162 80 -248 50z"/>
<path d="M4231 2612 c-28 -53 60 -232 133 -269 17 -9 33 -19 36 -22 3 -4 30
-18 60 -31 44 -20 72 -24 145 -25 82 0 97 3 155 32 85 42 145 94 174 152 54
105 59 181 12 181 -18 0 -25 -7 -29 -30 -4 -19 -18 -37 -39 -50 -31 -18 -51
-20 -271 -20 l-239 0 -34 34 c-19 19 -34 41 -34 50 0 23 -56 21 -69 -2z"/>
<path d="M3853 1577 c-3 -5 -17 -7 -31 -6 -15 1 -35 -1 -44 -5 -9 -4 -21 -5
-27 -2 -5 4 -13 1 -16 -5 -4 -5 -13 -8 -21 -5 -7 3 -16 1 -20 -5 -3 -6 -12 -8
-19 -5 -7 2 -16 1 -21 -4 -5 -4 -40 -18 -77 -30 -310 -101 -589 -324 -763
-608 l-44 -73 56 -65 c300 -342 760 -613 1224 -723 168 -39 189 -41 551 -41
402 0 439 4 684 76 400 118 750 333 1048 643 53 56 97 106 97 112 0 6 -16 38
-36 72 -97 166 -269 343 -438 451 -55 35 -188 110 -196 111 -13 2 -126 48
-136 56 -6 5 -13 6 -16 4 -3 -3 -18 0 -34 6 -16 7 -33 11 -38 10 -4 -1 -14 3
-20 9 -7 5 -16 7 -19 4 -3 -3 -11 -2 -18 2 -13 8 -46 13 -84 14 -10 1 -24 5
-30 10 -6 5 -27 7 -47 4 l-35 -6 -6 -79 c-4 -62 -11 -89 -33 -127 -66 -113
-205 -206 -380 -254 -67 -18 -105 -22 -249 -21 -143 0 -183 3 -249 22 -184 50
-337 154 -393 268 -21 44 -27 71 -27 127 l-1 71 -43 0 c-24 0 -46 -4 -49 -8z"/>
</g>
</svg>
